HIERARCHY
ROOT joint_0
{
	OFFSET 0.000000 0.000000 0.000000
	CHANNELS 6 Xposition Yposition Zposition Zrotation Yrotation Xrotation 
	JOINT joint_1
	{
		OFFSET 4.520508 -1.939880 86.268921
		CHANNELS 3 Zrotation Yrotation Xrotation
		JOINT joint_2
		{
			OFFSET -4.459717 -0.438538 78.934082
			CHANNELS 3 Zrotation Yrotation Xrotation
			JOINT joint_3
			{
				OFFSET -5.197754 -0.781128 78.796997
				CHANNELS 3 Zrotation Yrotation Xrotation
				JOINT joint_4
				{
					OFFSET 2.952026 -3.710571 109.812988
					CHANNELS 3 Zrotation Yrotation Xrotation
					JOINT joint_5
					{
						OFFSET 24.716797 -5.488037 87.903931
						CHANNELS 3 Zrotation Yrotation Xrotation
						End Site
						{
							OFFSET 0.000000 0.000000 0.000000
						}
					}
				}
				JOINT joint_6
				{
					OFFSET -3.154419 -25.484680 60.934937
					CHANNELS 3 Zrotation Yrotation Xrotation
					JOINT joint_7
					{
						OFFSET -28.997192 -144.472229 -32.671997
						CHANNELS 3 Zrotation Yrotation Xrotation
						JOINT joint_8
						{
							OFFSET 19.867676 -18.614380 -249.897949
							CHANNELS 3 Zrotation Yrotation Xrotation
							JOINT joint_9
							{
								OFFSET 5.281982 -13.816650 -264.993042
								CHANNELS 3 Zrotation Yrotation Xrotation
								End Site
								{
									OFFSET 0.000000 0.000000 0.000000
								}
							}
						}
					}
				}
				JOINT joint_10
				{
					OFFSET 6.494995 21.336792 62.257935
					CHANNELS 3 Zrotation Yrotation Xrotation
					JOINT joint_11
					{
						OFFSET 31.106567 145.200745 -27.007935
						CHANNELS 3 Zrotation Yrotation Xrotation
						JOINT joint_12
						{
							OFFSET 29.119141 24.684326 -248.460083
							CHANNELS 3 Zrotation Yrotation Xrotation
							JOINT joint_13
							{
								OFFSET 21.220093 31.248413 -262.703979
								CHANNELS 3 Zrotation Yrotation Xrotation
								End Site
								{
									OFFSET 0.000000 0.000000 0.000000
								}
							}
						}
					}
				}
			}
		}
	}
	JOINT joint_14
	{
		OFFSET -15.458496 -88.861694 -109.593018
		CHANNELS 3 Zrotation Yrotation Xrotation
		JOINT joint_15
		{
			OFFSET -6.193359 6.837952 -506.710999
			CHANNELS 3 Zrotation Yrotation Xrotation
			JOINT joint_16
			{
				OFFSET -35.096680 13.289795 -435.677025
				CHANNELS 3 Zrotation Yrotation Xrotation
				JOINT joint_17
				{
					OFFSET 158.491211 -33.916565 -71.771002
					CHANNELS 3 Zrotation Yrotation Xrotation
					End Site
					{
						OFFSET 0.000000 0.000000 0.000000
					}
				}
			}
		}
	}
	JOINT joint_18
	{
		OFFSET 23.116943 86.574158 -110.082031
		CHANNELS 3 Zrotation Yrotation Xrotation
		JOINT joint_19
		{
			OFFSET -6.125854 -0.283569 -506.757019
			CHANNELS 3 Zrotation Yrotation Xrotation
			JOINT joint_20
			{
				OFFSET -63.240234 11.589966 -432.537994
				CHANNELS 3 Zrotation Yrotation Xrotation
				JOINT joint_21
				{
					OFFSET 156.074219 -41.487305 -73.077999
					CHANNELS 3 Zrotation Yrotation Xrotation
					End Site
					{
						OFFSET 0.000000 0.000000 0.000000
					}
				}
			}
		}
	}
}
MOTION
Frames: 18
Frame Time: 0.016667
-1933.007568 737.172607 1150.755005 9.572562 2.892877 1.170822 -0.055674 2.056411 -2.093542 0.147228 -0.371295 0.490959 0.105318 0.257905 -0.297838 -0.594988 0.672998 2.174729 0.000000 0.000000 0.000000 5.490429 7.737553 -2.889207 0.193795 6.428121 10.020581 0.233138 -9.234463 -4.463622 0.000000 0.000000 0.000000 -0.822325 7.303351 6.906304 -2.158118 10.224374 -6.181541 -1.092662 -8.647613 4.797363 0.000000 0.000000 0.000000 0.099335 -2.701941 0.421543 0.196332 6.535896 0.250210 0.113111 -0.560951 -0.069935 0.000000 0.000000 0.000000 2.720855 -7.161724 -2.722844 2.613810 17.013650 6.220822 4.144603 -0.316336 1.783543 0.000000 0.000000 0.000000 
-1918.921875 734.473145 1152.865967 9.006701 2.878260 1.292819 0.178681 2.131051 -2.479511 0.431551 -0.331237 0.634743 0.375313 0.267089 -0.320993 -0.584874 1.149843 2.216146 0.000000 0.000000 0.000000 5.512868 8.379100 -3.170242 0.328717 6.818156 10.975196 0.224306 -9.278005 -5.217230 0.000000 0.000000 0.000000 -0.675038 8.519816 7.288380 -2.816354 11.509955 -6.452140 -1.529115 -10.941715 5.010968 0.000000 0.000000 0.000000 0.445882 -3.827152 -0.063314 0.502647 10.155531 1.306166 0.512270 -0.494804 0.119104 0.000000 0.000000 0.000000 3.207675 -11.145477 -3.603165 2.969903 25.805182 8.022806 6.034791 0.919799 2.865501 0.000000 0.000000 0.000000 
-1904.049805 731.517517 1154.991943 8.175860 2.891734 1.218795 0.498517 2.230584 -2.525531 0.792728 -0.305232 0.617077 0.732496 0.287589 -0.349106 -0.565650 1.702599 2.223070 0.000000 0.000000 0.000000 5.383846 8.890354 -3.380374 0.468270 7.073168 11.827123 0.196693 -9.416272 -6.297243 0.000000 0.000000 0.000000 -0.467815 10.017863 7.361481 -3.559722 12.823246 -6.082883 -2.143013 -14.016525 4.591120 0.000000 0.000000 0.000000 1.023714 -5.102750 -0.510591 0.938835 13.924847 2.669621 1.121509 0.270936 0.542269 0.000000 0.000000 0.000000 3.790855 -15.502211 -4.055383 3.215273 34.698568 9.124402 8.286275 3.588984 4.400998 0.000000 0.000000 0.000000 
-1888.228027 728.711975 1157.042969 7.126427 2.837304 1.082686 0.824510 2.607216 -2.458359 1.189635 -0.438663 0.517277 1.146359 0.335718 -0.403080 -0.563893 2.212315 2.268038 0.000000 0.000000 0.000000 5.045823 9.236005 -3.479781 0.544974 7.269201 12.065534 0.182857 -9.775355 -7.030622 0.000000 0.000000 0.000000 -0.159809 11.074687 7.158603 -4.094296 13.594418 -5.545448 -2.507994 -15.863218 4.475798 0.000000 0.000000 0.000000 1.630581 -6.008955 -0.750166 1.405482 17.078494 3.742722 1.787634 1.501942 1.081333 0.000000 0.000000 0.000000 4.001336 -18.735646 -4.379615 3.060124 40.043206 9.338568 9.058502 6.129353 5.317662 0.000000 0.000000 0.000000 
-1871.297485 726.277405 1159.493042 6.089764 2.791062 1.123020 1.068457 3.136437 -2.782371 1.514336 -0.630301 0.581335 1.475960 0.426172 -0.511109 -0.583858 2.676294 2.372218 0.000000 0.000000 0.000000 4.406296 9.297036 -3.381003 0.509348 7.385704 11.221443 0.211935 -10.378678 -6.934807 0.000000 0.000000 0.000000 0.312018 11.208154 6.678501 -4.180653 13.453568 -5.168624 -2.389545 -15.222189 5.139509 0.000000 0.000000 0.000000 2.040002 -6.410865 -0.901762 1.811840 19.275675 4.252563 2.365317 2.971203 1.632834 0.000000 0.000000 0.000000 3.288759 -20.467038 -4.991369 2.223292 40.625912 8.879854 6.721528 6.973215 4.635458 0.000000 0.000000 0.000000 
-1853.417114 723.991882 1161.866943 5.116698 2.845090 1.280061 1.290409 3.584526 -3.341795 1.764952 -0.777944 0.747537 1.708992 0.523650 -0.640836 -0.610836 3.094143 2.488704 0.000000 0.000000 0.000000 3.560864 9.172836 -3.174061 0.397904 7.429048 9.755834 0.258269 -11.184931 -6.459614 0.000000 0.000000 0.000000 0.880807 10.854561 6.067029 -3.994453 12.816087 -4.775464 -2.040669 -13.391075 6.018590 0.000000 0.000000 0.000000 2.328265 -6.635154 -1.070522 2.180691 20.989217 4.527186 2.894221 4.517521 2.181024 0.000000 0.000000 0.000000 1.951915 -21.541742 -5.718123 0.891615 38.301618 8.100116 3.002187 6.528839 3.040558 0.000000 0.000000 0.000000 
-1834.892944 721.599731 1162.657959 4.308162 3.103528 1.482155 1.531687 3.667610 -3.836019 1.962310 -0.816587 0.898511 1.878907 0.556574 -0.737167 -0.634619 3.358958 2.576948 0.000000 0.000000 0.000000 2.752399 9.186337 -3.122328 0.300026 7.530882 8.591016 0.288952 -12.257422 -6.353091 0.000000 0.000000 0.000000 1.394316 10.611046 5.787077 -3.844709 12.349756 -4.297829 -1.826319 -12.184285 6.322244 0.000000 0.000000 0.000000 2.575017 -7.036807 -1.343964 2.508369 22.776204 4.923559 3.421613 5.707023 2.647120 0.000000 0.000000 0.000000 0.883082 -22.755823 -6.437253 -0.155557 34.945000 7.492496 0.491569 5.731811 1.787083 0.000000 0.000000 0.000000 
-1815.647583 718.948975 1161.546997 3.741830 3.752944 1.820878 1.803884 3.081525 -4.319298 2.119878 -0.674412 1.064984 1.997037 0.467508 -0.790259 -0.657187 3.399822 2.639499 0.000000 0.000000 0.000000 2.042187 9.529662 -3.357706 0.266549 7.781440 8.153602 0.293384 -13.726198 -6.981792 0.000000 0.000000 0.000000 1.851454 10.712951 6.119978 -3.853189 12.316194 -3.641608 -1.921858 -12.348176 5.544528 0.000000 0.000000 0.000000 2.794973 -7.889754 -1.879498 2.803685 24.809498 5.550044 3.999453 6.506191 3.041800 0.000000 0.000000 0.000000 0.544949 -24.370186 -7.320930 -0.388118 30.446454 7.272251 -0.104903 4.892152 1.295259 0.000000 0.000000 0.000000 
-1795.758423 716.192627 1158.853027 3.206408 4.534319 2.095960 2.081552 2.293369 -4.538983 2.294287 -0.517867 1.117893 2.148354 0.324913 -0.816554 -0.679709 3.289532 2.689657 0.000000 0.000000 0.000000 1.362258 10.025659 -3.755107 0.260835 8.104965 8.009493 0.284970 -15.504487 -7.972626 0.000000 0.000000 0.000000 2.255012 10.920558 6.774885 -3.913818 12.441386 -2.873899 -2.161945 -13.110246 4.165806 0.000000 0.000000 0.000000 3.006001 -8.842786 -2.390903 3.105026 26.897127 6.257143 4.625799 7.049397 3.393180 0.000000 0.000000 0.000000 0.548499 -25.754935 -8.075606 -0.225868 24.322524 7.012084 0.079279 5.161099 1.434385 0.000000 0.000000 0.000000 
-1775.761719 713.535461 1154.017944 2.650706 4.996071 2.064033 2.303750 1.934713 -4.227530 2.466024 -0.498824 0.967146 2.330966 0.236634 -0.804670 -0.696411 3.146166 2.722752 0.000000 0.000000 0.000000 0.768800 10.478836 -4.230119 0.256486 8.400618 7.839449 0.271956 -17.366039 -9.010884 0.000000 0.000000 0.000000 2.438143 11.117820 7.448609 -3.994522 12.632587 -2.271360 -2.415783 -14.015800 2.838171 0.000000 0.000000 0.000000 3.211004 -9.407695 -2.612503 3.362739 29.065022 7.094206 5.218163 7.084882 3.608998 0.000000 0.000000 0.000000 0.549160 -26.834011 -8.318389 -0.199622 18.922802 6.274066 0.057505 7.472179 2.042569 0.000000 0.000000 0.000000 
-1756.002197 711.109863 1146.473022 2.413417 5.138496 1.911443 2.374022 1.926378 -3.739720 2.493286 -0.486819 0.812479 2.372856 0.230166 -0.713148 -0.699445 2.962245 2.713629 0.000000 0.000000 0.000000 0.310615 10.855749 -4.880842 0.241168 8.641036 7.619241 0.253270 -19.403360 -10.068678 0.000000 0.000000 0.000000 2.289400 11.300309 8.141373 -4.110425 12.960310 -2.089133 -2.659911 -15.080627 1.747232 0.000000 0.000000 0.000000 3.289506 -9.587559 -2.811593 3.423597 31.442660 8.254933 5.632985 6.317269 3.565422 0.000000 0.000000 0.000000 0.215059 -28.124812 -8.148448 -0.706930 15.296613 4.653673 -0.725833 12.071881 2.953068 0.000000 0.000000 0.000000 
-1736.133911 708.783569 1136.787964 2.424921 5.073780 1.684440 2.338911 2.106575 -3.128656 2.425248 -0.477939 0.651218 2.323128 0.268431 -0.567239 -0.698155 2.740020 2.688999 0.000000 0.000000 0.000000 -0.072049 11.182454 -5.600441 0.225183 8.854941 7.365965 0.228739 -21.517482 -11.175194 0.000000 0.000000 0.000000 1.932160 11.481361 8.871538 -4.234843 13.374602 -2.093319 -2.907362 -16.328540 0.724876 0.000000 0.000000 0.000000 3.303287 -9.457347 -2.994018 3.388593 33.910933 9.630422 5.993140 5.036138 3.377592 0.000000 0.000000 0.000000 -0.214441 -29.397506 -7.822726 -1.371204 12.698347 2.706516 -1.750111 17.648472 4.053035 0.000000 0.000000 0.000000 
-1715.657959 706.370178 1126.112061 2.493693 4.750110 1.315241 2.280800 2.502467 -2.375813 2.360679 -0.555024 0.447475 2.288150 0.350141 -0.432990 -0.704432 2.605308 2.698258 0.000000 0.000000 0.000000 -0.472973 11.374798 -6.055422 0.205066 9.013112 6.898099 0.205879 -23.185570 -12.141852 0.000000 0.000000 0.000000 1.533021 11.570738 9.435592 -4.263158 13.635592 -1.936126 -3.086100 -17.331426 -0.111988 0.000000 0.000000 0.000000 3.348348 -8.872262 -2.961765 3.439027 36.192013 10.947045 6.543009 3.654612 3.228354 0.000000 0.000000 0.000000 -0.466103 -30.117655 -7.775879 -1.670786 11.818990 1.803293 -2.254395 20.621306 4.687962 0.000000 0.000000 0.000000 
-1693.383301 703.797607 1113.329956 2.812557 4.021151 0.746027 2.165751 3.033290 -1.542699 2.232490 -0.681505 0.298711 2.184639 0.493663 -0.327723 -0.712800 2.683240 2.742355 0.000000 0.000000 0.000000 -1.033570 11.496372 -6.174479 0.189909 9.165612 6.091439 0.198676 -24.395762 -12.935827 0.000000 0.000000 0.000000 1.103142 11.588445 9.851869 -4.153576 13.720280 -1.463484 -3.182185 -17.969153 -0.819626 0.000000 0.000000 0.000000 3.328108 -7.361160 -2.593551 3.516215 37.923512 12.217031 7.270814 1.989488 3.065186 0.000000 0.000000 0.000000 -0.443794 -29.971540 -8.495384 -1.273873 13.841402 2.896315 -1.688554 18.008111 4.232313 0.000000 0.000000 0.000000 
-1670.502075 701.137878 1099.557007 3.265924 3.055212 0.084076 2.057516 3.747474 -0.678170 2.069949 -0.870770 0.173460 2.037770 0.662462 -0.238768 -0.726137 2.851773 2.815258 0.000000 0.000000 0.000000 -1.604080 11.504830 -6.071100 0.161654 9.257569 5.129110 0.190577 -25.166174 -13.621218 0.000000 0.000000 0.000000 0.618766 11.516346 10.118248 -3.950638 13.658801 -0.847975 -3.217574 -18.341567 -1.356115 0.000000 0.000000 0.000000 3.334877 -5.402444 -2.052860 3.623330 39.432633 13.450399 8.195671 0.255377 2.937591 0.000000 0.000000 0.000000 -0.289972 -29.301716 -9.575842 -0.549808 17.654022 5.065110 -0.538729 12.508656 3.214914 0.000000 0.000000 0.000000 
-1650.087036 698.417908 1089.290039 3.517182 2.471548 -0.269159 2.100697 4.421285 -0.118877 2.005343 -1.050009 0.049593 1.976831 0.783289 -0.187149 -0.767712 2.876276 2.954088 0.000000 0.000000 0.000000 -1.810955 11.185565 -5.711407 0.061751 9.114926 4.356373 0.128726 -25.034018 -14.198366 0.000000 0.000000 0.000000 0.188470 11.198522 10.029436 -3.691218 13.287559 -0.271185 -3.186821 -18.333275 -1.462510 0.000000 0.000000 0.000000 3.528157 -4.512980 -1.853414 3.887035 41.617219 14.442913 9.562926 -0.820983 3.095018 0.000000 0.000000 0.000000 -0.205036 -29.015855 -10.466738 0.032265 21.170756 6.856172 0.437197 8.179148 2.439415 0.000000 0.000000 0.000000 
-1634.094238 695.430481 1084.230957 3.582349 2.721634 0.110443 2.307622 4.822925 -0.414100 2.066822 -1.102795 0.049515 2.017092 0.831752 -0.186348 -0.868639 2.524035 3.223738 0.000000 0.000000 0.000000 -1.338648 10.325486 -4.857768 -0.170460 8.632588 3.836287 -0.048465 -23.583797 -14.764854 0.000000 0.000000 0.000000 -0.188659 10.458404 9.327867 -3.350875 12.382123 0.237846 -3.042472 -17.695827 -0.791215 0.000000 0.000000 0.000000 3.888781 -5.664910 -2.482258 4.356560 45.192643 15.020853 11.748973 -1.072945 3.705890 0.000000 0.000000 0.000000 -0.294930 -30.070481 -11.303208 0.341028 24.423679 7.793423 0.867121 6.019436 2.036263 0.000000 0.000000 0.000000 
-1620.567749 692.382751 1082.678955 3.552426 3.378008 0.905953 2.608820 5.133539 -1.199740 2.183947 -1.103950 0.156892 2.092310 0.822407 -0.234804 -0.994062 2.016140 3.541280 0.000000 0.000000 0.000000 -0.503323 9.139885 -3.794827 -0.418179 7.908724 3.450776 -0.261720 -21.186685 -15.163852 0.000000 0.000000 0.000000 -0.482062 9.470126 8.274278 -2.969903 11.156131 0.685056 -2.828602 -16.703745 0.309990 0.000000 0.000000 0.000000 4.207597 -7.871761 -3.599921 4.895161 49.424793 15.200143 14.546435 -0.740737 4.663796 0.000000 0.000000 0.000000 -0.492750 -31.643612 -12.079333 0.589155 27.592692 8.274716 1.056138 4.793258 1.792866 0.000000 0.000000 0.000000 
